<?xml version="1.0" standalone="no"?>
<!DOCTYPE svg PUBLIC "-//W3C//DTD SVG 20010904//EN"
 "http://www.w3.org/TR/2001/REC-SVG-20010904/DTD/svg10.dtd">
<svg version="1.0" xmlns="http://www.w3.org/2000/svg"
 width="845.000000pt" height="845.000000pt" viewBox="0 0 845.000000 845.000000"
 preserveAspectRatio="xMidYMid meet">

<g transform="translate(0.000000,845.000000) scale(0.100000,-0.100000)"
fill="#000000" stroke="none">
<path d="M0 4230 l0 -4220 4220 0 4220 0 0 4220 0 4220 -4220 0 -4220 0 0
-4220z m3879 3528 c24 -57 71 -164 104 -238 78 -178 114 -261 177 -405 58
-131 58 -131 65 -123 7 7 109 232 175 388 27 63 85 196 129 295 l79 180 59 -3
c149 -7 464 -84 698 -171 322 -119 685 -327 931 -533 660 -552 1058 -1262
1180 -2108 21 -145 30 -557 15 -717 -55 -610 -267 -1172 -629 -1665 -35 -49
-71 -88 -79 -88 -9 0 -84 35 -167 79 -297 154 -623 321 -630 321 -11 0 -7 -25
18 -111 13 -46 42 -154 65 -239 23 -85 56 -202 72 -259 58 -200 90 -333 85
-346 -7 -19 -181 -141 -318 -224 -986 -594 -2231 -622 -3242 -73 -202 110
-445 273 -446 301 0 7 11 50 24 95 13 44 50 176 81 291 67 245 104 380 134
487 11 42 21 79 21 83 0 3 -80 -35 -177 -86 -284 -147 -441 -228 -545 -282
l-97 -50 -20 24 c-52 62 -167 228 -231 336 -400 663 -551 1454 -424 2223 112
677 428 1294 910 1776 470 470 1039 777 1674 904 181 36 187 37 230 39 l35 1
44 -102z m4551 -7038 l0 -410 -4207 2 -4208 3 -3 408 -2 407 4210 0 4210 0 0
-410z"/>
<path d="M3943 6965 c-426 -54 -816 -212 -1153 -466 -153 -116 -240 -198 -361
-338 -294 -341 -471 -717 -551 -1166 -28 -164 -35 -488 -14 -670 96 -808 599
-1511 1331 -1861 499 -238 1070 -296 1603 -163 485 122 904 382 1231 764 443
518 639 1190 545 1867 -56 408 -214 783 -477 1133 -86 114 -324 348 -448 441
-309 229 -652 376 -1044 445 -158 28 -498 35 -662 14z m297 -42 c7 -16 44
-100 83 -188 38 -88 87 -200 109 -250 22 -49 53 -119 68 -155 15 -36 46 -105
68 -155 21 -49 94 -216 161 -370 68 -154 138 -314 156 -355 88 -201 108 -246
173 -395 39 -88 104 -236 145 -330 41 -93 121 -276 177 -405 111 -254 179
-410 264 -602 30 -68 86 -197 126 -288 40 -91 94 -214 120 -275 27 -60 47
-112 44 -114 -2 -2 -27 12 -56 31 -29 19 -102 65 -163 103 -60 37 -132 82
-160 100 -27 18 -286 180 -575 360 -289 181 -559 350 -600 377 -41 26 -91 56
-110 67 l-35 19 -859 -529 c-473 -291 -863 -529 -867 -529 -4 0 1 17 10 38 23
47 10 18 563 1282 143 327 277 633 298 680 21 47 55 123 75 170 21 47 52 119
70 160 18 41 104 237 191 435 86 198 175 401 196 450 22 50 53 119 68 155 56
129 99 227 145 330 25 58 56 129 67 158 11 28 24 52 28 52 4 0 13 -12 20 -27z
m-610 -3615 c48 -118 48 -118 24 -118 -16 0 -28 9 -39 30 -14 26 -21 30 -59
30 -39 0 -45 -3 -56 -30 -9 -21 -19 -30 -35 -30 -23 0 -23 1 18 108 50 129 51
130 78 128 17 -1 30 -22 69 -118z m137 84 c16 -21 37 -55 48 -75 11 -20 23
-37 27 -37 5 0 8 34 8 75 0 68 2 75 20 75 19 0 20 -7 20 -120 0 -118 0 -120
-23 -120 -17 0 -33 17 -66 70 -23 39 -47 70 -52 70 -5 0 -9 -31 -9 -70 0 -63
-2 -70 -20 -70 -19 0 -20 7 -20 113 0 63 3 117 7 120 15 15 34 5 60 -31z m335
-76 c23 -61 45 -114 46 -118 2 -5 -8 -8 -21 -8 -19 0 -28 8 -36 30 -9 28 -14
30 -56 30 -43 0 -48 -3 -58 -30 -8 -21 -18 -30 -34 -30 -13 0 -23 2 -23 4 0 2
16 46 36 97 20 52 40 104 44 115 6 14 17 22 33 22 23 0 30 -12 69 -112z m297
73 c12 -21 26 -41 31 -44 5 -3 21 15 35 40 24 41 51 56 67 39 4 -3 -12 -33
-35 -67 -34 -51 -41 -71 -42 -112 -1 -44 -4 -50 -23 -53 -20 -3 -22 1 -22 50
0 45 -6 62 -40 113 -22 33 -40 63 -40 66 0 4 11 7 24 7 17 0 30 -11 45 -39z
m308 26 c11 -8 23 -24 26 -35 4 -16 0 -20 -18 -20 -13 0 -26 7 -29 16 -8 21
-70 15 -74 -8 -2 -13 10 -21 49 -32 68 -21 79 -31 79 -77 0 -48 -27 -69 -89
-69 -49 0 -91 29 -91 62 0 26 25 22 55 -8 19 -18 31 -23 48 -18 57 17 46 50
-25 71 -53 15 -70 33 -70 70 0 54 87 84 139 48z m123 -105 c0 -113 -1 -120
-20 -120 -19 0 -20 7 -20 120 0 113 1 120 20 120 19 0 20 -7 20 -120z m195 95
c14 -13 25 -29 25 -35 0 -16 -47 -12 -54 6 -8 22 -70 15 -74 -8 -3 -13 10 -21
52 -33 63 -19 77 -32 78 -76 1 -43 -31 -69 -87 -69 -48 0 -95 30 -95 61 0 25
31 25 47 0 23 -37 93 -31 93 8 0 15 -10 23 -42 31 -68 18 -88 35 -88 75 0 64
95 91 145 40z m-805 -80 l0 -95 60 0 c53 0 60 -2 60 -20 0 -18 -7 -20 -80 -20
l-80 0 0 115 c0 108 1 115 20 115 19 0 20 -7 20 -95z m920 -124 c0 -16 -7 -37
-16 -46 -21 -20 -31 -11 -13 11 11 13 11 18 2 21 -22 8 -15 43 7 43 15 0 20
-7 20 -29z m-1783 -167 c28 -39 0 -62 -34 -28 -20 19 -78 15 -78 -6 0 -9 21
-22 54 -33 60 -20 80 -39 81 -78 0 -43 -34 -69 -89 -69 -53 0 -88 21 -93 55
-4 29 38 34 47 6 3 -12 10 -21 15 -21 5 0 15 -3 23 -6 9 -3 25 4 37 16 27 27
14 45 -38 55 -83 15 -110 86 -47 124 28 16 106 7 122 -15z m250 -6 c42 -43 44
-131 3 -178 -30 -34 -115 -40 -152 -10 -60 47 -57 162 5 201 43 27 110 21 144
-13z m313 -42 c0 -98 11 -126 49 -126 15 0 33 6 39 13 6 7 12 51 14 97 3 77 5
85 23 85 19 0 20 -6 19 -99 0 -91 -2 -100 -23 -117 -16 -13 -39 -19 -71 -19
-41 0 -52 4 -69 26 -18 23 -21 41 -21 120 0 87 1 94 20 94 18 0 20 -7 20 -74z
m368 52 c3 -15 -4 -18 -32 -18 l-36 0 0 -100 0 -100 -25 0 -25 0 0 100 0 100
-35 0 c-28 0 -35 4 -35 20 0 19 6 20 92 18 79 -3 93 -6 96 -20z m72 -98 c0
-113 -1 -120 -20 -120 -19 0 -20 7 -20 120 0 113 1 120 20 120 19 0 20 -7 20
-120z m217 100 c62 -37 65 -153 6 -199 -52 -42 -149 -18 -174 41 -15 38 -6
114 17 140 38 42 100 49 151 18z m135 6 c7 -7 31 -42 53 -77 l40 -64 3 78 c2
68 5 78 20 75 15 -3 17 -19 20 -121 3 -116 2 -117 -20 -117 -18 0 -34 17 -70
78 l-48 77 0 -77 c0 -71 -2 -78 -20 -78 -19 0 -20 7 -20 113 0 129 8 149 42
113z m321 3 c25 -14 37 -28 37 -46 0 -18 -35 -16 -50 2 -14 17 -66 20 -75 5
-11 -17 13 -37 53 -45 74 -14 105 -75 60 -122 -31 -33 -109 -33 -143 2 -14 13
-25 31 -25 40 0 23 32 18 59 -10 26 -28 34 -30 62 -15 37 20 23 48 -32 64 -56
17 -78 38 -79 74 0 51 76 80 133 51z m311 -5 c22 -21 20 -53 -4 -79 l-20 -22
20 -18 c11 -10 20 -13 20 -7 0 7 9 12 21 12 18 0 20 -4 14 -31 -5 -23 -3 -34
10 -43 15 -11 15 -13 2 -25 -12 -10 -21 -10 -37 -1 -16 9 -25 9 -33 1 -18 -18
-92 -13 -109 7 -30 33 -30 58 -2 91 23 27 25 35 15 61 -9 26 -7 34 9 50 24 24
73 26 94 4z m-1623 -66 c1 -40 0 -83 -1 -95 -1 -22 2 -23 59 -23 54 0 61 -2
61 -20 0 -18 -7 -20 -80 -20 l-80 0 0 115 c0 108 1 115 20 115 18 0 20 -7 21
-72z m26 -314 c26 -36 11 -91 -29 -107 -9 -4 -10 -8 -2 -14 6 -4 23 -27 38
-50 l26 -43 -27 1 c-22 0 -35 10 -59 47 -18 28 -40 48 -52 50 -20 3 -22 -1
-22 -47 0 -48 -2 -51 -25 -51 l-25 0 0 121 0 122 82 -6 c63 -4 85 -10 95 -23z
m233 6 c0 -16 -8 -19 -62 -22 -60 -3 -63 -4 -63 -28 0 -23 4 -25 58 -28 41 -2
57 -7 57 -17 0 -10 -16 -15 -57 -17 -57 -3 -58 -3 -61 -35 l-3 -33 70 0 c64 0
71 -2 71 -20 0 -19 -7 -20 -90 -20 l-90 0 0 120 0 120 85 0 c78 0 85 -2 85
-20z m195 -5 c14 -13 25 -29 25 -35 0 -16 -47 -12 -54 6 -8 21 -70 15 -74 -8
-2 -12 11 -20 51 -32 63 -18 80 -35 80 -78 0 -44 -33 -68 -93 -68 -41 0 -52 4
-69 26 -12 15 -21 33 -21 40 0 21 38 17 49 -5 20 -37 91 -30 91 8 0 15 -10 23
-42 31 -68 18 -88 35 -88 75 0 64 95 91 145 40z m115 -56 c0 -95 10 -119 48
-119 45 0 52 16 52 112 0 81 2 88 20 88 19 0 20 -7 20 -100 0 -87 -3 -103 -20
-120 -29 -29 -106 -28 -137 2 -21 20 -23 30 -23 120 0 91 1 98 20 98 18 0 20
-7 20 -81z m540 61 c0 -16 -7 -20 -35 -20 l-35 0 0 -100 c0 -93 -1 -100 -20
-100 -19 0 -20 7 -20 100 l0 100 -39 0 c-34 0 -38 3 -34 20 5 18 14 20 94 20
82 0 89 -2 89 -20z m185 -6 c8 -11 15 -25 15 -31 0 -18 -35 -16 -50 3 -17 19
-75 15 -75 -6 0 -8 21 -22 50 -33 63 -23 85 -43 85 -77 0 -44 -33 -70 -91 -70
-40 0 -55 5 -74 25 -33 32 -32 55 0 55 16 0 25 -6 25 -15 0 -21 46 -38 69 -25
35 18 33 40 -4 56 -19 7 -40 14 -48 14 -22 0 -57 39 -57 63 0 26 17 52 40 61
29 11 101 -1 115 -20z m-485 -79 l0 -95 60 0 c53 0 60 -2 60 -20 0 -18 -7 -20
-80 -20 l-80 0 0 115 c0 108 1 115 20 115 19 0 20 -7 20 -95z"/>
<path d="M3541 3339 c-17 -50 -14 -59 20 -59 32 0 33 2 8 68 -11 29 -15 28
-28 -9z"/>
<path d="M4016 3336 c-3 -13 -9 -31 -12 -40 -5 -13 1 -16 25 -16 34 0 39 12
19 55 -14 31 -24 32 -32 1z"/>
<path d="M3494 3012 c-34 -22 -44 -93 -18 -130 19 -28 74 -30 97 -4 24 26 23
104 -1 125 -19 18 -59 22 -78 9z"/>
<path d="M4467 3002 c-24 -26 -23 -104 1 -125 27 -25 78 -22 96 5 23 32 20 94
-4 118 -25 25 -72 26 -93 2z"/>
<path d="M5282 3008 c2 -13 10 -23 18 -23 8 0 16 10 18 23 3 17 -2 22 -18 22
-16 0 -21 -5 -18 -22z"/>
<path d="M5262 2918 c-21 -21 -14 -57 12 -64 47 -11 59 14 27 54 -22 26 -23
26 -39 10z"/>
<path d="M3620 2621 c0 -24 5 -29 28 -33 38 -5 59 1 66 19 10 25 -13 43 -55
43 -36 0 -39 -2 -39 -29z"/>
<path d="M711 965 c-197 -61 -200 -359 -4 -442 89 -37 221 3 276 83 38 55 48
152 23 218 -24 63 -87 123 -149 141 -61 18 -88 18 -146 0z m119 -35 c43 -12
93 -61 114 -112 33 -78 11 -183 -48 -238 -24 -22 -37 -25 -101 -25 -68 0 -76
2 -106 30 -44 41 -69 100 -69 163 0 63 17 107 57 145 45 42 93 54 153 37z"/>
<path d="M4343 973 c-40 -8 -73 -59 -73 -113 0 -60 26 -94 111 -145 32 -20 64
-45 69 -55 29 -54 -8 -120 -66 -120 -41 0 -72 32 -80 80 -5 28 -12 40 -23 40
-13 0 -15 -10 -13 -64 4 -65 4 -65 40 -77 89 -30 161 -7 189 59 34 82 -3 165
-98 217 -65 35 -78 50 -79 91 0 75 99 88 115 14 11 -51 35 -37 35 20 0 46 -2
50 -24 50 -13 0 -36 2 -52 4 -16 2 -39 2 -51 -1z"/>
<path d="M4692 968 c-18 -6 -52 -28 -76 -50 -157 -138 -52 -408 159 -408 132
0 225 94 225 228 0 99 -47 174 -137 221 -32 16 -133 22 -171 9z m143 -48 c95
-46 134 -178 83 -280 -27 -51 -60 -78 -112 -90 -74 -17 -141 20 -181 101 -83
163 57 343 210 269z"/>
<path d="M6771 970 c-51 -12 -112 -60 -138 -109 -30 -57 -32 -157 -4 -216 57
-122 199 -170 322 -107 79 40 114 100 114 196 -1 85 -24 136 -85 188 -61 52
-126 67 -209 48z m156 -66 c103 -78 105 -264 4 -331 -47 -32 -132 -32 -177 -1
-65 45 -100 148 -81 235 27 115 162 167 254 97z"/>
<path d="M7710 969 c-41 -17 -63 -48 -67 -98 -5 -64 11 -88 97 -146 80 -54
104 -85 94 -125 -20 -90 -152 -71 -157 22 -2 29 -6 38 -19 38 -15 0 -18 -10
-18 -63 l0 -64 38 -12 c80 -25 126 -19 169 24 34 34 35 37 31 100 -3 55 -8 69
-33 96 -17 17 -48 40 -70 51 -84 42 -109 94 -65 138 38 38 100 12 100 -42 0
-22 26 -24 34 -2 8 21 7 56 -2 70 -10 16 -102 25 -132 13z"/>
<path d="M1040 953 c0 -7 9 -13 19 -13 45 0 51 -21 51 -191 0 -92 -4 -169 -10
-180 -6 -11 -21 -19 -35 -19 -16 0 -25 -6 -25 -15 0 -12 17 -15 95 -15 78 0
95 3 95 15 0 10 -10 15 -29 15 -16 0 -33 6 -39 13 -11 13 -22 319 -11 315 4
-2 80 -87 169 -190 90 -104 167 -188 171 -188 5 0 10 96 11 212 l3 213 30 5
c17 3 29 9 28 13 -2 4 -3 10 -3 15 0 4 -39 6 -87 5 -72 -1 -89 -4 -91 -17 -3
-12 5 -16 32 -16 42 0 42 -1 50 -190 l6 -125 -23 27 c-27 33 -199 228 -247
281 -33 36 -39 38 -98 41 -46 2 -62 -1 -62 -11z"/>
<path d="M1580 954 c0 -6 17 -14 39 -18 50 -8 51 -12 51 -207 0 -170 -3 -179
-57 -179 -23 0 -33 -5 -33 -15 0 -13 25 -15 169 -15 l169 0 6 31 c11 55 7 89
-9 89 -8 0 -15 -8 -15 -18 0 -10 -7 -28 -16 -40 -13 -19 -24 -22 -80 -22 -60
0 -65 2 -74 26 -12 30 -13 141 -2 147 4 3 34 2 67 -2 52 -5 60 -9 63 -28 2
-13 10 -23 18 -23 12 0 14 13 12 67 -2 42 -8 68 -15 71 -8 2 -13 -6 -13 -22 0
-23 -4 -26 -32 -26 -18 0 -50 -3 -70 -6 l-38 -7 0 87 0 86 58 0 c67 0 78 -6
87 -43 4 -15 14 -27 22 -27 11 0 14 11 11 53 l-3 52 -158 0 c-111 0 -157 -3
-157 -11z"/>
<path d="M2272 960 c-170 -73 -192 -321 -38 -415 42 -25 62 -31 128 -34 108
-4 127 5 166 85 18 35 32 69 32 74 0 21 -28 9 -39 -17 -26 -62 -47 -75 -120
-81 -59 -4 -75 -1 -109 18 -23 13 -55 43 -73 68 -61 85 -39 199 49 254 74 46
203 23 218 -38 3 -13 12 -24 20 -24 22 0 19 96 -3 105 -30 12 -207 16 -231 5z"/>
<path d="M2580 949 c0 -14 7 -19 29 -19 17 0 31 -6 35 -16 3 -9 6 -87 6 -174
0 -87 -3 -165 -6 -174 -4 -10 -18 -16 -35 -16 -19 0 -29 -5 -29 -15 0 -13 26
-15 173 -15 l174 0 12 52 c9 41 9 53 -1 59 -9 6 -17 -3 -26 -26 -11 -27 -22
-37 -52 -45 -43 -12 -129 2 -142 23 -9 14 -11 308 -2 331 4 10 18 16 41 16 26
0 34 4 31 16 -2 12 -22 16 -105 18 -95 3 -103 2 -103 -15z"/>
<path d="M2980 948 c0 -13 8 -18 29 -18 17 0 31 -6 35 -16 3 -9 6 -87 6 -174
0 -87 -3 -165 -6 -174 -4 -10 -18 -16 -35 -16 -19 0 -29 -5 -29 -15 0 -12 18
-15 100 -15 82 0 100 3 100 15 0 10 -10 15 -29 15 -20 0 -31 6 -35 18 -10 32
-10 342 -1 351 6 5 21 11 35 13 14 1 25 10 25 18 0 11 -19 14 -97 15 -87 0
-98 -2 -98 -17z"/>
<path d="M3331 948 c-115 -57 -157 -219 -85 -334 42 -69 112 -104 208 -104
107 0 112 3 152 81 37 74 41 89 21 89 -6 0 -23 -20 -36 -44 -26 -50 -57 -66
-129 -66 -143 0 -241 156 -177 280 8 15 33 40 56 56 36 25 51 29 105 28 70 -1
110 -20 120 -59 11 -46 34 -30 34 24 l0 49 -50 11 c-84 18 -169 14 -219 -11z"/>
<path d="M3670 948 c0 -12 8 -18 24 -18 16 0 26 -7 30 -22 8 -30 8 -322 0
-342 -4 -10 -18 -16 -35 -16 -19 0 -29 -5 -29 -15 0 -12 18 -15 100 -15 82 0
100 3 100 15 0 10 -10 15 -29 15 -36 0 -41 12 -41 107 l0 74 128 -131 c97
-101 131 -130 145 -125 9 4 17 10 17 14 0 3 -23 31 -51 61 -88 94 -172 210
-161 223 98 129 124 157 148 157 18 0 25 5 22 17 -2 9 -6 16 -10 15 -5 -1 -42
-2 -83 -2 -60 0 -75 -3 -75 -15 0 -9 9 -15 25 -15 14 0 25 -6 25 -12 0 -11
-88 -129 -121 -163 -5 -5 -9 26 -9 82 l0 92 27 3 c15 2 29 10 31 18 2 12 -13
15 -88 15 -79 0 -90 -2 -90 -17z"/>
<path d="M5032 950 c2 -8 15 -16 30 -18 35 -4 38 -18 38 -203 0 -164 -4 -179
-47 -179 -14 0 -23 -6 -23 -15 0 -13 26 -15 173 -15 l173 0 13 50 c12 47 9 70
-9 70 -5 0 -11 -13 -15 -29 -8 -38 -46 -56 -113 -54 -89 3 -92 9 -92 189 0 84
3 159 6 168 4 10 18 16 41 16 27 0 34 4 31 16 -2 14 -19 17 -106 18 -86 1
-102 -1 -100 -14z"/>
<path d="M5430 953 c0 -7 11 -15 24 -19 31 -7 36 -34 36 -188 0 -134 12 -172
63 -210 42 -31 183 -30 224 0 58 43 68 75 73 239 l5 149 25 6 c14 3 25 12 25
20 0 20 -179 17 -183 -4 -2 -11 7 -16 34 -18 36 -3 39 -6 47 -43 14 -63 3
-234 -17 -272 -23 -46 -68 -66 -129 -60 -91 8 -116 58 -117 232 0 130 4 145
41 145 21 0 29 5 29 18 0 15 -11 17 -90 17 -65 0 -90 -3 -90 -12z"/>
<path d="M5930 913 c0 -42 3 -51 15 -47 8 4 15 14 15 24 0 27 13 32 91 35 l69
2 0 -169 c0 -98 -4 -178 -10 -189 -8 -13 -21 -19 -45 -19 -24 0 -35 -5 -35
-15 0 -12 20 -15 120 -15 100 0 120 3 120 15 0 10 -10 15 -33 15 -55 0 -57 7
-57 197 l0 173 65 0 c61 0 65 -2 71 -25 11 -45 34 -30 34 23 l0 47 -210 0
-210 0 0 -52z"/>
<path d="M6373 958 c-9 -15 9 -28 38 -28 l29 0 -2 -187 -3 -188 -32 -3 c-21
-2 -33 -9 -33 -18 0 -11 20 -14 100 -14 82 0 100 3 100 15 0 9 -9 15 -25 15
-14 0 -29 8 -35 19 -11 21 -14 318 -4 345 4 10 18 16 35 16 21 0 29 5 29 18 0
15 -11 17 -96 17 -53 0 -98 -3 -101 -7z"/>
<path d="M7090 954 c0 -6 13 -14 29 -17 36 -8 38 -20 31 -227 l-5 -155 -27 -3
c-16 -2 -28 -9 -28 -18 0 -11 19 -14 90 -14 72 0 90 3 90 14 0 9 -12 16 -32
18 -25 2 -34 9 -39 28 -10 34 -11 300 -1 299 4 0 34 -32 67 -72 149 -178 267
-307 276 -301 5 3 9 99 9 215 l0 209 30 0 c22 0 30 5 30 18 0 15 -11 17 -90
17 -79 0 -90 -2 -90 -17 0 -14 8 -18 34 -18 l34 0 6 -72 c15 -203 16 -242 7
-233 -5 6 -74 83 -154 173 l-145 163 -61 3 c-42 2 -61 -1 -61 -10z"/>
</g>
</svg>
